<svg width="24" height="24" viewBox="0 0 24 24" fill="none" xmlns="http://www.w3.org/2000/svg">
<path fill-rule="evenodd" clip-rule="evenodd" d="M12 0C18.6274 0 24 5.37258 24 12C24 18.6274 18.6274 24 12 24C5.37258 24 0 18.6274 0 12C0 5.37258 5.37258 0 12 0ZM21.7321 13.3052C20.5756 13.9068 19.0524 14.4098 17.3228 14.7566C17.0769 17.2679 16.4954 19.4847 15.6496 21.1175C18.8777 19.8241 21.2591 16.8661 21.7321 13.3052ZM15.2578 12.8776C15.2677 12.5887 15.2727 12.296 15.2727 12C15.2727 6.52799 13.5343 2.18182 12 2.18182C10.4658 2.18182 8.72729 6.52799 8.72729 12C8.72729 12.3131 8.73298 12.6224 8.744 12.9275C9.76737 13.0345 10.8609 13.0909 12 13.0909C13.1215 13.0909 14.2219 13.0118 15.2578 12.8776ZM17.4504 12.4954C17.4532 12.3311 17.4545 12.1659 17.4545 12C17.4545 8.36986 16.7939 5.09163 15.6496 2.88254C18.8963 4.18337 21.2866 7.16817 21.7401 10.7566C21.2267 11.3328 19.6076 12.0172 17.4504 12.4954ZM8.92247 15.1389C9.90112 15.2271 10.9319 15.2727 12 15.2727C13.0509 15.2727 14.0863 15.2132 15.0821 15.1027C14.5901 19.0273 13.2295 21.8182 12 21.8182C10.7744 21.8182 9.41835 19.0445 8.92247 15.1389ZM6.55151 12.6002C5.92538 12.4753 5.34184 12.3282 4.80902 12.1609C3.45573 11.7359 2.57138 11.2151 2.25339 10.808C2.69046 7.19665 5.08813 4.18949 8.35043 2.88249C7.20608 5.09158 6.54545 8.36983 6.54545 12C6.54545 12.2012 6.54748 12.4013 6.55151 12.6002ZM6.68633 14.8482C6.93727 17.3218 7.51492 19.5046 8.35043 21.1175C5.17826 19.8466 2.82361 16.9682 2.29408 13.4899C3.43243 14.0828 4.93452 14.5437 6.68633 14.8482Z" fill="black"/>
</svg>
