<svg width="25" height="25" viewBox="0 0 25 25" fill="none" xmlns="http://www.w3.org/2000/svg">
<path fill-rule="evenodd" clip-rule="evenodd" d="M3.55595 3.06587L4.13567 2.04141C4.55395 1.30224 5.40896 0.835327 6.34425 0.835327H19.6338C20.5691 0.835327 21.4241 1.30224 21.8424 2.04141L22.4221 3.06587C23.3273 3.2379 24.066 3.85078 24.2977 4.66979L24.915 6.85161C25.2458 8.02062 24.4414 9.2052 23.1183 9.49746C22.982 9.52757 22.8432 9.54732 22.7033 9.55655L20.233 24.8353H5.74506L3.27483 9.55665C1.9969 9.47358 0.989319 8.53115 0.989319 7.38078C0.989319 7.20239 1.01408 7.02468 1.06305 6.85161L1.68036 4.66979C1.91209 3.85078 2.6507 3.2379 3.55595 3.06587ZM5.77014 9.5626H20.208L18.0914 22.6535H7.88666L5.77014 9.5626ZM4.07594 5.19896H5.10965L6.34428 3.01714H19.6338L20.8685 5.19896H21.9022L22.5195 7.38078H3.45862L4.07594 5.19896Z" fill="white"/>
</svg>
