<svg width="25" height="25" viewBox="0 0 25 25" fill="none" xmlns="http://www.w3.org/2000/svg">
<path fill-rule="evenodd" clip-rule="evenodd" d="M5.32288 2.9682C5.11052 2.96774 4.90581 2.99186 4.71128 3.03772C4.44462 2.44787 4.09238 1.91868 3.69176 1.51662C3.01179 0.834212 1.93938 0.565147 0.454834 0.565147V2.96515C1.36172 2.96515 1.88359 3.09608 2.00076 3.21368C2.45271 3.66724 2.84626 4.58882 2.84626 5.36515L2.85828 5.53485L4.02992 13.7658C2.06947 13.8678 0.550727 15.3957 0.456303 17.3057L0.454834 18.5651C0.570605 20.5379 2.0843 22.0554 3.97411 22.1632L4.24556 22.1636C4.73757 23.5627 6.06669 24.5651 7.62912 24.5651C9.19098 24.5651 10.5197 23.5634 11.0121 22.1651H13.8118C14.3042 23.5634 15.633 24.5651 17.1948 24.5651C19.176 24.5651 20.782 22.9534 20.782 20.9651C20.782 18.9769 19.176 17.3651 17.1948 17.3651C15.633 17.3651 14.3042 18.3669 13.8118 19.7651H11.0121C10.5197 18.3669 9.19098 17.3651 7.62912 17.3651C6.06725 17.3651 4.73853 18.3669 4.24609 19.7651H4.04198C3.43217 19.7284 2.88517 19.18 2.84412 18.4933L2.84626 17.3651C2.8785 16.7427 3.42177 16.1975 4.10123 16.1637L6.46173 16.1643L6.47884 16.1651H18.5303L18.7068 16.1089C19.6134 15.8202 20.3391 15.1351 20.6828 14.2482L20.8087 13.998L21.218 13.1842C21.6414 12.3418 22.0648 11.4981 22.4775 10.6737C23.4881 8.65444 24.1237 7.37114 24.2645 7.05601C24.9874 5.43769 23.5231 4.1921 22.0264 4.16558L5.32288 2.9682ZM18.1149 13.7651H6.56841C6.49163 13.7437 6.43313 13.6785 6.42168 13.5972L5.25 5.36603L21.8502 6.55906C21.5598 7.15353 21.0318 8.21534 20.3405 9.59645L20.3232 9.63106C19.9286 10.4194 19.5058 11.262 19.0829 12.1032L18.6742 12.916L18.5192 13.2238L18.4609 13.3598C18.3984 13.5345 18.2744 13.678 18.1149 13.7651ZM17.1949 22.1651C17.8552 22.1651 18.3906 21.6279 18.3906 20.9651C18.3906 20.3024 17.8552 19.7651 17.1949 19.7651C16.5345 19.7651 15.9991 20.3024 15.9991 20.9651C15.9991 21.6279 16.5345 22.1651 17.1949 22.1651ZM8.82484 20.9651C8.82484 21.6279 8.2895 22.1651 7.62912 22.1651C6.96875 22.1651 6.43341 21.6279 6.43341 20.9651C6.43341 20.3024 6.96875 19.7651 7.62912 19.7651C8.2895 19.7651 8.82484 20.3024 8.82484 20.9651Z" fill="white"/>
</svg>
