<svg width="25" height="25" viewBox="0 0 25 25" fill="none" xmlns="http://www.w3.org/2000/svg">
<path fill-rule="evenodd" clip-rule="evenodd" d="M19.9599 22.1657L22.3787 19.7468L21.5268 16.6519L21.8979 15.7655L24.6987 14.1851V10.7645L21.9059 9.17749L21.541 8.29266L22.4036 5.19617L19.9831 2.77912L16.8881 3.63078L16.0037 3.25996L14.4232 0.458836H11.0028L9.41582 3.25174L8.53123 3.61658L5.43538 2.75291L3.01871 5.16969L3.87046 8.26539L3.49966 9.14979L0.698669 10.7304V14.15L3.48893 15.7405L3.85415 16.6261L2.99173 19.7221L5.40931 22.1398L8.50486 21.288L9.38933 21.6589L10.9699 24.4588H14.3894L15.9787 21.6684L16.8641 21.3032L19.9599 22.1657ZM20.1743 14.2329L19.2232 16.5044L19.9382 19.1018L19.3181 19.7219L16.7263 18.9998L14.4539 19.9371L13.1212 22.2769H12.2437L10.922 19.9356L8.6531 18.9842L6.05446 19.6993L5.43543 19.0802L6.15742 16.4883L5.22029 14.216L2.88049 12.8822V12.0045L5.22278 10.6828L6.17416 8.41362L5.45913 5.81486L6.07687 5.1971L8.66859 5.92012L10.9418 4.98255L12.2725 2.64075H13.1491L14.4708 4.98315L16.7398 5.93457L19.339 5.21937L19.9596 5.83907L19.2377 8.43042L20.1752 10.7035L22.5169 12.0343V12.911L20.1743 14.2329ZM12.6987 16.8232C10.2887 16.8232 8.33502 14.8695 8.33502 12.4594C8.33502 10.0493 10.2887 8.09555 12.6987 8.09555C15.1086 8.09555 17.0623 10.0493 17.0623 12.4594C17.0623 14.8695 15.1086 16.8232 12.6987 16.8232ZM14.8805 12.4594C14.8805 13.6644 13.9036 14.6413 12.6987 14.6413C11.4937 14.6413 10.5168 13.6644 10.5168 12.4594C10.5168 11.2543 11.4937 10.2775 12.6987 10.2775C13.9036 10.2775 14.8805 11.2543 14.8805 12.4594Z" fill="white"/>
</svg>
