<svg width="25" height="25" viewBox="0 0 25 25" fill="none" xmlns="http://www.w3.org/2000/svg">
<path fill-rule="evenodd" clip-rule="evenodd" d="M10.1063 22.2679C10.1132 22.4153 10.0956 22.5591 10.0611 22.7047C10.0005 22.9605 9.88343 23.2312 9.71775 23.4813C9.24679 24.1922 8.44673 24.6667 7.41667 24.6667C4.99013 24.6667 4.03778 23.5954 2.84536 20.9129C2.03778 19.0961 1.6568 18.6675 0.75 18.6675L0.75 16.2679C3.17654 16.2679 4.12889 17.3391 5.3213 20.0217C6.12889 21.8385 6.50987 22.267 7.41667 22.267C7.41667 21.9189 7.41137 21.6105 7.40022 21.1928C7.37408 20.214 7.37108 20.0142 7.41853 19.7525C7.4375 19.1813 7.60138 18.776 7.93 18.3737C4.95426 17.7908 2.94723 16.5869 1.7953 14.6343L1.36378 13.7211C0.943394 12.6339 0.75 11.4021 0.75 9.97949C0.75 8.34106 1.30513 6.8761 2.34202 5.65153C2.01857 4.48753 2.06287 3.06537 2.77708 1.45926L3.01045 0.934453L3.60876 0.762234C3.68886 0.739176 3.78625 0.718351 3.90065 0.702193C5.06568 0.537649 6.72347 0.930233 8.89073 2.17945C10.1684 1.91294 11.5138 1.77838 12.8684 1.77838C14.0788 1.77838 15.2826 1.8882 16.4322 2.10469C18.5407 0.916467 20.153 0.543793 21.2867 0.702404C21.3998 0.718226 21.4961 0.738652 21.5756 0.761323L22.1776 0.93312L22.4113 1.46113C23.0361 2.87301 23.1433 4.17418 22.916 5.31272C24.108 6.59979 24.75 8.18209 24.75 9.97949C24.75 11.4948 24.6294 12.6342 24.2826 13.7427L23.9165 14.6466C22.9584 16.5972 20.8453 17.8145 17.5867 18.3944C17.9254 18.8164 18.0833 19.2448 18.0833 19.8674V21.0672C18.0833 21.6486 18.0833 21.6665 18.0819 22.267C18.0849 22.3101 18.0889 22.3312 18.0933 22.3444L18.0833 24.6667C16.9476 24.6667 16.1032 24.1682 15.6878 23.382C15.4725 22.9744 15.4082 22.5852 15.4167 22.25V19.8674C15.4167 19.7668 15.4128 19.7609 15.1405 19.5159C14.4128 18.8611 14.0833 18.367 14.0833 17.4677V16.3823L15.2834 16.2739C18.8558 15.9511 20.7987 15.0583 21.4429 13.7541L21.744 13.0136C21.9835 12.2392 22.0833 11.2962 22.0833 9.97949C22.0833 8.58038 21.5405 7.42463 20.514 6.50123L19.9497 5.99369L20.18 5.30633C20.3846 4.69568 20.4332 3.97312 20.2168 3.14897C20.1808 3.15717 20.1435 3.16611 20.1047 3.17583C19.3907 3.35468 18.4994 3.73846 17.4253 4.38454L16.9354 4.67922L16.3634 4.5516C15.2572 4.30476 14.0685 4.17803 12.8684 4.17803C11.5338 4.17803 10.2146 4.33083 8.99595 4.62979L8.40121 4.7757L7.89243 4.46249C6.7815 3.77861 5.8586 3.37191 5.11857 3.18193C5.06571 3.16836 5.01539 3.15622 4.96755 3.1454C4.70936 4.09924 4.81148 4.88291 5.07297 5.47094L5.38651 6.17602L4.81251 6.73275C3.89786 7.61988 3.41667 8.69944 3.41667 9.97949C3.41667 11.1514 3.56913 12.1225 3.84851 12.854L4.19742 13.5972C5.06965 15.07 6.92227 15.9561 10.2254 16.2747L11.4167 16.3896V17.4677C11.4167 18.367 11.0872 18.8611 10.3595 19.5159C10.0872 19.7609 10.0833 19.7668 10.0833 19.8674L10.0604 20.0892C10.0451 20.1619 10.0451 20.3498 10.0661 21.1352C10.0758 21.4965 10.0813 21.7824 10.0828 22.0812C10.0988 22.143 10.1012 22.1829 10.1063 22.2679Z" fill="white"/>
</svg>
