<svg width="24" height="24" viewBox="0 0 24 24" fill="none" xmlns="http://www.w3.org/2000/svg">
<path fill-rule="evenodd" clip-rule="evenodd" d="M9.35631 21.6012C9.36324 21.7486 9.34556 21.8924 9.31107 22.038C9.25047 22.2938 9.13343 22.5645 8.96775 22.8146C8.49679 23.5256 7.69673 24 6.66667 24C4.24013 24 3.28778 22.9288 2.09536 20.2462C1.28778 18.4294 0.906798 18.0009 0 18.0009L0 15.6012C2.42654 15.6012 3.37889 16.6725 4.5713 19.355C5.37889 21.1718 5.75987 21.6004 6.66667 21.6004C6.66667 21.2522 6.66137 20.9438 6.65022 20.5262C6.62408 19.5474 6.62108 19.3476 6.66853 19.0859C6.6875 18.5147 6.85138 18.1094 7.18 17.7071C4.20426 17.1242 2.19723 15.9203 1.0453 13.9676L0.613783 13.0545C0.193394 11.9673 0 10.7355 0 9.31283C0 7.6744 0.555128 6.20944 1.59202 4.98487C1.26857 3.82087 1.31287 2.39871 2.02708 0.792606L2.26045 0.267796L2.85876 0.0955778C2.93886 0.0725199 3.03625 0.0516946 3.15065 0.0355363C4.31568 -0.129007 5.97347 0.263577 8.14073 1.51279C9.41836 1.24628 10.7638 1.11173 12.1184 1.11173C13.3288 1.11173 14.5326 1.22154 15.6822 1.43804C17.7907 0.249811 19.403 -0.122864 20.5367 0.0357473C20.6498 0.0515694 20.7461 0.0719959 20.8256 0.0946662L21.4276 0.266463L21.6613 0.794474C22.2861 2.20635 22.3933 3.50752 22.166 4.64607C23.358 5.93314 24 7.51544 24 9.31283C24 10.8281 23.8794 11.9676 23.5326 13.076L23.1665 13.9799C22.2084 15.9305 20.0953 17.1479 16.8367 17.7277C17.1754 18.1497 17.3333 18.5781 17.3333 19.2007V20.4005C17.3333 20.982 17.3333 20.9999 17.3319 21.6004C17.3349 21.6435 17.3389 21.6646 17.3433 21.6777C17.3422 21.6781 17.3333 24 17.3333 24C16.1976 24 15.3532 23.5016 14.9378 22.7154C14.7225 22.3078 14.6582 21.9185 14.6667 21.5833V19.2007C14.6667 19.1001 14.6628 19.0943 14.3905 18.8493C13.6628 18.1944 13.3333 17.7003 13.3333 16.8011V15.7157L14.5334 15.6072C18.1058 15.2844 20.0487 14.3917 20.6929 13.0875L20.994 12.3469C21.2335 11.5726 21.3333 10.6296 21.3333 9.31283C21.3333 7.91373 20.7905 6.75797 19.764 5.83458L19.1997 5.32703L19.43 4.63967C19.6346 4.02903 19.6832 3.30646 19.4668 2.48231C19.4308 2.49051 19.3935 2.49945 19.3547 2.50917C18.6407 2.68803 17.7494 3.07181 16.6753 3.71789L16.1854 4.01256L15.6134 3.88494C14.5072 3.6381 13.3185 3.51137 12.1184 3.51137C10.7838 3.51137 9.46462 3.66417 8.24595 3.96314L7.65121 4.10904L7.14242 3.79583C6.0315 3.11195 5.1086 2.70525 4.36857 2.51527C4.31571 2.5017 4.26539 2.48956 4.21755 2.47874C3.95936 3.43259 4.06148 4.21625 4.32297 4.80429L4.63651 5.50937L4.06251 6.06609C3.14786 6.95322 2.66667 8.03278 2.66667 9.31283C2.66667 10.4848 2.81913 11.4559 3.09851 12.1874L3.44742 12.9306C4.31965 14.4034 6.17227 15.2895 9.47544 15.6081L10.6667 15.723V16.8011C10.6667 17.7003 10.3372 18.1944 9.60948 18.8493C9.33721 19.0943 9.33333 19.1001 9.33333 19.2007L9.31035 19.4225C9.29514 19.4953 9.29514 19.6831 9.31612 20.4685C9.32576 20.8298 9.33126 21.1157 9.33285 21.4145C9.34878 21.4764 9.35119 21.5163 9.35631 21.6012Z" fill="black"/>
</svg>
