<svg width="25" height="25" viewBox="0 0 25 25" fill="none" xmlns="http://www.w3.org/2000/svg">
<path fill-rule="evenodd" clip-rule="evenodd" d="M22.1124 5.74164H17.3124V3.41222C17.3124 2.06261 16.2537 0.941635 14.9124 0.941635H2.91239C1.57109 0.941635 0.51239 2.06261 0.51239 3.41222V22.471C0.51239 23.8207 1.57109 24.9416 2.91239 24.9416H14.9124C16.2537 24.9416 17.3124 23.8207 17.3124 22.471V20.1416H22.1124C23.4379 20.1416 24.5124 19.0671 24.5124 17.7416V8.14164C24.5124 6.81615 23.4379 5.74164 22.1124 5.74164ZM17.3124 11.7416H22.1124V17.7416H17.3124V11.7416ZM14.9124 22.471V3.41222C14.9124 3.38833 14.9093 3.37174 14.9072 3.36068L14.9072 3.36066L14.9072 3.36065L14.9072 3.36064L14.9072 3.36063L14.9072 3.36062C14.9046 3.3468 14.9036 3.34163 14.9124 3.34163H2.91241C2.9212 3.34163 2.92023 3.3468 2.91763 3.36062C2.91554 3.37168 2.91241 3.38828 2.91241 3.41222V22.471C2.91241 22.495 2.91554 22.5116 2.91763 22.5226C2.92023 22.5365 2.9212 22.5416 2.91241 22.5416H14.9124C14.9036 22.5416 14.9046 22.5365 14.9072 22.5226C14.9093 22.5116 14.9124 22.495 14.9124 22.471ZM4.11243 18.9416V21.3416H6.51243V18.9416H4.11243ZM7.7124 21.3416V18.9416H10.1124V21.3416H7.7124ZM11.3124 18.9416V21.3416H13.7124V18.9416H11.3124ZM4.11243 17.7416V15.3416H6.51243V17.7416H4.11243ZM7.7124 15.3416V17.7416H10.1124V15.3416H7.7124ZM11.3124 17.7416V15.3416H13.7124V17.7416H11.3124ZM13.7124 14.1416V4.54163H4.11243V14.1416H13.7124ZM6.51239 6.94164V11.7416H11.3124V6.94164H6.51239ZM22.1124 8.14164V9.34164H17.3124V8.14164H22.1124Z" fill="white"/>
</svg>
