<svg width="25" height="25" viewBox="0 0 25 25" fill="none" xmlns="http://www.w3.org/2000/svg">
<path fill-rule="evenodd" clip-rule="evenodd" d="M3.23334 0.833344H22.4333C23.7588 0.833344 24.8333 1.90786 24.8333 3.23334V22.4333C24.8333 23.7588 23.7588 24.8333 22.4333 24.8333H3.23334C1.90786 24.8333 0.833344 23.7588 0.833344 22.4333V3.23334C0.833344 1.90786 1.90786 0.833344 3.23334 0.833344ZM3.23334 3.23334V22.4333H22.4333V3.23334H3.23334ZM14.0333 9.23334C13.412 9.23334 12.7556 9.42325 12.1759 9.77592L11.6333 9.23334H10.4333V17.6333H12.8333V12.8333C12.8333 12.1424 13.5461 11.6333 14.0333 11.6333H15.2333C15.7206 11.6333 16.4333 12.1424 16.4333 12.8333V17.6333H18.8333V12.8333C18.8333 10.61 16.9061 9.23334 15.2333 9.23334H14.0333ZM8.03334 8.03334C8.69609 8.03334 9.23334 7.49609 9.23334 6.83334C9.23334 6.1706 8.69609 5.63334 8.03334 5.63334C7.3706 5.63334 6.83334 6.1706 6.83334 6.83334C6.83334 7.49609 7.3706 8.03334 8.03334 8.03334ZM6.83334 9.23334V17.6333H9.23334V9.23334H6.83334Z" fill="white"/>
</svg>
