<svg width="25" height="25" viewBox="0 0 25 25" fill="none" xmlns="http://www.w3.org/2000/svg">
<path fill-rule="evenodd" clip-rule="evenodd" d="M22.6798 3.50212L24.3333 3.71084L23.5901 5.32096C23.2276 6.10616 22.8648 6.89135 22.5016 7.67654C22.4585 7.84284 22.3828 7.98864 22.2709 8.17845C22.2241 8.25777 22.0643 8.51006 22.0568 8.52217C22.0147 8.59056 21.9835 8.6445 21.961 8.68772V11.7052C21.961 19.4267 15.0477 24.3333 8.51892 24.3333C7.18298 24.3333 6.16796 24.2641 5.0057 23.99C3.093 23.5388 1.66958 22.642 1.01822 21.0747L0.347615 19.461L1.97733 19.299C3.45165 19.1524 4.72992 18.8488 5.71157 18.4423C3.01659 17.9738 1.50633 16.6944 1.50633 14.2917V13.0284H2.67511C2.9319 13.0284 3.16345 13.0059 3.37046 12.9645C1.34784 11.6574 0.334771 9.56043 0.334771 6.65191C0.33455 6.52794 0.33455 6.52794 0.333861 6.39539C0.326262 4.92936 0.399113 4.14603 0.770405 3.14626C1.00836 2.50552 1.35232 1.91236 1.81524 1.36885L2.69721 0.333344L3.5547 1.3926C6.38053 4.88336 9.17392 7.00113 12.026 7.25729C12.0382 4.03622 14.2903 1.5986 17.2857 1.5986C18.6821 1.5986 19.9487 2.1715 20.9441 3.20454C21.4889 3.32555 22.0675 3.42482 22.6798 3.50212ZM20.0958 5.59133L19.7375 5.50364L19.49 5.21014C18.8917 4.50049 18.1408 4.12525 17.2857 4.12525C15.5758 4.12525 14.3635 5.44212 14.3635 7.28357C14.3635 7.58451 14.3563 7.77361 14.3216 8.02215C14.1832 9.01388 13.6686 9.81023 12.6103 9.81023C9.10628 9.81023 5.94507 7.78119 2.86246 4.31571C2.70355 4.83787 2.66617 5.37462 2.67139 6.38123C2.6721 6.51586 2.6721 6.51586 2.67234 6.65191C2.67234 9.23921 3.64209 10.6544 5.93819 11.4433L6.75293 11.7232V12.6473C6.75293 13.7678 5.77077 14.8226 4.33371 15.2951C4.99247 15.8353 6.33971 16.1269 8.51935 16.1269H9.68813V17.3902C9.68813 19.2002 7.764 20.6174 4.8574 21.3575C5.80532 21.6714 7.06745 21.8067 8.51894 21.8067C13.9122 21.8067 19.6235 17.7531 19.6235 11.7052V8.5469C19.6235 8.17576 19.723 7.8536 19.8883 7.51864C19.953 7.38767 20.0242 7.26282 20.112 7.12041C20.1286 7.09361 20.1899 6.99647 20.2387 6.91881L20.3313 6.71857C20.4814 6.39409 20.6314 6.06962 20.7814 5.74515C20.5483 5.69742 20.3198 5.64616 20.0958 5.59133Z" fill="white"/>
</svg>
